<?xml version="1.0" standalone="no"?>
<!DOCTYPE svg PUBLIC "-//W3C//DTD SVG 20010904//EN"
 "http://www.w3.org/TR/2001/REC-SVG-20010904/DTD/svg10.dtd">
<svg version="1.0" xmlns="http://www.w3.org/2000/svg"
 width="626.000000pt" height="626.000000pt" viewBox="0 0 626.000000 626.000000"
 preserveAspectRatio="xMidYMid meet">
<metadata>
Created by potrace 1.11, written by Peter Selinger 2001-2013
</metadata>
<g transform="translate(0.000000,626.000000) scale(0.100000,-0.100000)"
fill="#000000" stroke="none">
<path d="M2916 5340 c-325 -41 -643 -173 -901 -374 -108 -85 -275 -261 -358
-376 -136 -191 -250 -458 -299 -702 -20 -98 -23 -143 -23 -343 0 -199 3 -245
23 -341 75 -372 263 -714 531 -966 l89 -84 -50 -239 c-40 -194 -48 -253 -44
-305 11 -150 81 -284 195 -375 34 -27 57 -51 51 -53 -29 -10 0 -94 52 -149
l30 -31 -298 -4 c-293 -4 -379 -13 -329 -34 26 -11 3063 -12 3090 -1 l20 8
-20 12 c-14 8 -109 13 -304 15 l-284 3 31 32 c56 58 80 143 41 149 -17 2 -9
12 42 53 76 61 139 150 170 241 36 109 32 196 -25 466 l-47 226 81 79 c263
250 448 590 522 957 20 96 23 142 23 341 0 200 -3 245 -23 343 -49 244 -163
511 -299 702 -83 115 -250 291 -358 376 -227 177 -492 297 -780 354 -123 25
-426 36 -549 20z m-707 -1013 c25 -31 -9 -37 -220 -37 -167 0 -208 3 -212 14
-12 31 16 36 219 36 155 0 204 -3 213 -13z m1646 -12 c0 -20 -8 -20 -724 -23
-443 -1 -729 2 -734 7 -5 5 -7 17 -4 25 6 15 80 16 734 14 720 -3 728 -3 728
-23z m682 14 c6 -6 9 -18 6 -25 -4 -11 -43 -14 -193 -14 -189 0 -208 4 -196
35 4 12 38 15 189 15 122 0 187 -4 194 -11z m-1399 -124 c-37 -8 -87 -22 -111
-33 -104 -46 -315 -205 -413 -311 -32 -35 -44 -42 -58 -34 -14 8 -7 20 56 82
81 81 204 181 287 231 94 58 158 80 236 79 l70 -1 -67 -13z m-1118 -80 c23
-28 0 -35 -120 -35 -120 0 -143 7 -120 35 10 12 38 15 120 15 82 0 110 -3 120
-15z m745 -10 l-30 -24 -247 -1 c-248 0 -267 3 -254 35 4 13 50 15 283 15
l278 0 -30 -25z m1293 -2 l3 -23 -268 0 -268 1 -30 24 -30 25 295 -2 295 -3 3
-22z m479 16 c6 -6 9 -18 6 -25 -4 -11 -39 -14 -168 -14 -164 0 -183 4 -171
35 4 12 35 15 164 15 103 0 162 -4 169 -11z m-1161 -209 c77 -18 194 -63 194
-74 0 -3 -25 4 -56 14 -70 24 -200 49 -274 51 -39 2 -63 -3 -83 -15 -26 -18
-39 -18 -122 -1 -41 9 -131 -26 -182 -70 -54 -46 -77 -45 -32 1 107 112 326
149 555 94z m-841 -10 c-17 -19 -31 -20 -386 -20 -356 0 -391 3 -374 30 4 6
146 10 392 10 385 0 386 0 368 -20z m2008 14 c3 -3 3 -12 0 -20 -4 -12 -71
-14 -403 -14 -384 0 -397 1 -415 20 -18 20 -17 20 397 20 228 0 417 -3 421 -6z
m-1838 -99 c1 -22 6 -49 10 -60 6 -17 4 -16 -10 3 -22 30 -34 107 -15 100 7
-2 13 -22 15 -43z m-183 -57 c-7 -7 -12 -21 -12 -32 -1 -20 -1 -20 -11 -3 -14
23 -5 47 18 47 13 0 14 -3 5 -12z m-497 -48 c4 -6 1 -17 -5 -25 -10 -12 -38
-15 -120 -15 -82 0 -110 3 -120 15 -23 28 0 35 120 35 72 0 121 -4 125 -10z
m355 3 c0 -3 -7 -15 -17 -25 -12 -14 -31 -18 -83 -18 -67 0 -93 11 -83 36 4
10 28 14 94 14 49 0 89 -3 89 -7z m2163 -7 c13 -33 -14 -36 -322 -36 -269 0
-307 2 -323 17 -10 9 -18 20 -18 25 0 4 148 8 329 8 270 0 330 -2 334 -14z
m-2079 -12 c4 -10 -11 -44 -38 -88 -59 -94 -110 -205 -136 -297 -29 -101 -37
-267 -16 -334 23 -73 11 -66 -14 9 -58 174 1 440 148 668 40 62 46 67 56 42z
m186 -112 c0 -5 -12 -19 -26 -33 -90 -83 -115 -264 -65 -461 11 -40 17 -75 16
-76 -6 -7 -44 127 -56 194 -16 92 -7 208 19 268 28 63 112 144 112 108z m-389
-84 c-8 -23 -10 -23 -236 -26 -230 -2 -261 2 -248 34 4 12 47 14 249 14 l243
0 -8 -22z m1936 6 c10 -26 -17 -34 -106 -32 -77 3 -84 5 -92 26 -8 22 -8 22
92 22 82 0 101 -3 106 -16z m346 2 c11 -27 -17 -36 -108 -36 -91 0 -119 9
-108 36 4 11 30 14 108 14 78 0 104 -3 108 -14z m-1710 -242 c39 -21 132 -30
141 -15 4 6 -1 23 -12 39 -10 15 -22 32 -26 39 -4 7 25 -7 64 -31 39 -24 110
-57 158 -72 76 -25 102 -29 207 -29 66 0 136 3 156 8 l37 7 7 -57 c10 -83 42
-178 70 -211 21 -25 25 -40 25 -93 -1 -134 -48 -245 -144 -337 -136 -131 -337
-182 -529 -133 -246 63 -387 238 -387 480 0 82 2 89 36 139 47 70 80 160 94
258 l12 80 31 -28 c17 -16 44 -36 60 -44z m-633 47 c0 -40 -5 -41 -215 -41
-163 0 -204 3 -208 14 -12 31 16 36 220 36 117 0 203 -4 203 -9z m2337 -2 c6
-6 9 -18 6 -25 -4 -11 -49 -14 -238 -14 -242 0 -245 1 -245 41 0 14 463 12
477 -2z m-2503 -195 c9 -3 16 -15 16 -25 0 -18 -9 -19 -134 -19 -136 0 -160 6
-136 35 10 12 39 15 125 15 63 0 120 -3 129 -6z m2090 0 c9 -3 16 -15 16 -25
0 -14 -7 -19 -30 -19 -22 0 -30 5 -30 18 0 30 13 38 44 26z m413 -5 c6 -6 9
-18 6 -25 -4 -11 -31 -14 -118 -14 -115 0 -138 7 -115 35 15 19 209 22 227 4z
m-2011 -99 c27 -70 41 -230 20 -230 -41 0 -113 117 -123 200 -5 40 -2 51 16
69 36 36 62 24 87 -39z m1290 46 c46 -34 3 -191 -69 -252 l-32 -27 -3 71 c-3
65 1 79 33 147 20 41 40 75 44 75 4 0 16 -6 27 -14z m-1582 -162 c3 -9 6 -19
6 -22 0 -10 -453 -3 -463 7 -26 26 11 31 228 31 194 0 224 -2 229 -16z m2306
-4 c0 -19 -7 -20 -234 -20 -146 0 -237 4 -241 10 -16 26 15 30 241 30 227 0
234 -1 234 -20z m-2110 -287 c0 -5 -26 -19 -56 -32 -121 -53 -224 -169 -264
-299 -21 -70 -71 -295 -115 -522 -20 -102 -25 -149 -19 -195 7 -66 37 -166 61
-201 8 -13 12 -24 9 -24 -14 0 -68 99 -86 159 -32 103 -27 174 40 498 33 160
67 311 76 335 27 67 81 144 133 188 75 62 222 124 221 93z m1660 -371 c15 -19
30 -45 33 -59 3 -18 -76 -977 -82 -1000 -1 -1 -11 -11 -23 -23 -22 -20 -30
-20 -870 -20 l-849 0 -24 25 c-14 13 -25 32 -25 41 0 10 -18 223 -41 473 -22
251 -38 473 -36 494 6 40 37 83 72 98 11 4 424 7 919 6 l898 -2 28 -33z
m-1824 -1137 l47 -25 847 0 847 0 38 26 c21 14 46 24 56 22 18 -3 18 -5 -3
-35 -34 -46 -93 -81 -152 -88 -28 -3 -409 -5 -848 -3 l-796 3 -43 30 c-24 17
-52 45 -62 63 -19 32 -19 32 2 32 11 0 41 -11 67 -25z"/>
<path d="M2801 2974 c-38 -31 -40 -47 -5 -34 32 13 109 13 152 1 43 -13 39 5
-8 37 -46 31 -100 29 -139 -4z"/>
<path d="M3338 2984 c-15 -8 -33 -24 -39 -36 -10 -19 -9 -20 7 -13 33 14 132
18 163 7 40 -14 39 -1 0 32 -35 30 -88 34 -131 10z"/>
<path d="M2851 2879 c-29 -31 -35 -71 -17 -113 29 -70 93 -70 122 1 26 60 -8
133 -61 133 -13 0 -33 -10 -44 -21z m79 -49 c0 -25 -18 -36 -26 -16 -8 21 3
49 16 41 5 -3 10 -15 10 -25z"/>
<path d="M3331 2874 c-53 -67 3 -184 72 -153 74 34 55 179 -23 179 -19 0 -36
-9 -49 -26z m49 -44 c0 -25 -18 -36 -26 -16 -8 21 3 49 16 41 5 -3 10 -15 10
-25z"/>
<path d="M2980 2602 c0 -16 47 -53 80 -62 22 -6 46 -6 69 0 64 18 60 25 -14
25 -61 0 -79 4 -104 23 -17 12 -31 19 -31 14z"/>
<path d="M3079 1947 c-113 -32 -199 -145 -199 -262 0 -54 28 -129 65 -172 19
-23 35 -51 35 -63 0 -11 10 -31 23 -44 21 -21 32 -23 147 -24 135 -2 160 6
160 56 0 15 16 42 39 68 123 133 71 357 -100 428 -52 22 -119 27 -170 13z
m154 -50 c86 -37 141 -121 140 -217 -1 -65 -20 -109 -68 -160 -19 -20 -35 -48
-37 -65 -4 -39 -39 -42 -48 -5 l-6 25 -7 -28 c-9 -34 -40 -34 -45 1 -4 28 -15
28 -27 0 -6 -13 -17 -23 -25 -23 -8 0 -16 10 -18 23 -4 27 -22 30 -22 3 0 -11
-5 -23 -10 -26 -17 -10 -40 15 -40 43 0 14 -15 41 -35 63 -133 147 -34 377
163 379 29 0 67 -6 85 -13z"/>
<path d="M3020 1710 c-26 -26 -25 -64 2 -90 30 -27 62 -25 87 7 24 30 20 58
-11 86 -27 22 -53 22 -78 -3z"/>
<path d="M3191 1704 c-12 -15 -21 -35 -21 -45 0 -19 44 -59 65 -59 7 0 24 9
39 21 31 25 34 61 6 89 -28 28 -64 25 -89 -6z"/>
</g>
</svg>
